<svg width="23" height="23" viewBox="0 0 23 23" fill="none" xmlns="http://www.w3.org/2000/svg">
<g clip-path="url(#clip0_765_378)">
<path d="M11.3678 22.9729C17.4389 22.9729 22.3606 18.048 22.3606 11.9729C22.3606 5.89777 17.4389 0.9729 11.3678 0.9729C5.29663 0.9729 0.375 5.89777 0.375 11.9729C0.375 18.048 5.29663 22.9729 11.3678 22.9729Z" fill="#584D14"/>
<path d="M11.3678 21.3085C16.5204 21.3085 20.6973 17.1288 20.6973 11.9728C20.6973 6.81691 16.5204 2.63721 11.3678 2.63721C6.21529 2.63721 2.03833 6.81691 2.03833 11.9728C2.03833 17.1288 6.21529 21.3085 11.3678 21.3085Z" fill="#584D14"/>
<path d="M12.1359 5.94727V7.13665C12.613 7.21357 13.0032 7.37132 13.3065 7.60991C13.6098 7.84851 13.8983 8.21459 14.1721 8.70818L12.9897 9.36957C12.6338 8.72285 12.1689 8.39949 11.5951 8.39949C11.2392 8.39949 10.944 8.50469 10.7094 8.71511C10.5965 8.81267 10.5065 8.93395 10.4457 9.0703C10.385 9.20665 10.355 9.35473 10.358 9.50399C10.358 9.79109 10.453 10.0297 10.643 10.2198C10.8288 10.4062 11.2047 10.6266 11.7706 10.8812C12.1868 11.066 12.5915 11.2757 12.9824 11.5093C13.3021 11.7056 13.5428 11.8948 13.7043 12.0768C14.1609 12.5701 14.3893 13.1667 14.3895 13.8666C14.3895 14.5546 14.1833 15.1615 13.7708 15.6872C13.3627 16.209 12.8169 16.5609 12.1335 16.7429V17.9991H11.0747V16.7785C10.2825 16.6492 9.67814 16.3762 9.26151 15.9595C8.84488 15.5428 8.53766 14.8996 8.33984 14.0298L9.67387 13.7526C9.85598 14.3677 10.0784 14.8065 10.3411 15.0691C10.616 15.32 10.9818 15.4454 11.4386 15.4454C11.8832 15.4454 12.2551 15.3018 12.5545 15.0147C12.8495 14.7318 12.997 14.3657 12.997 13.9165C12.997 13.516 12.8737 13.1943 12.6272 12.9516C12.5019 12.834 12.3172 12.7016 12.0732 12.5542C11.7701 12.3761 11.4573 12.2149 11.1363 12.0716C10.3516 11.7196 9.83613 11.3962 9.59008 11.1015C9.19769 10.6603 9.00149 10.1325 9.00149 9.51785C8.99866 9.2407 9.04557 8.96529 9.13998 8.70472C9.23253 8.45478 9.36914 8.22349 9.54334 8.02185C9.72923 7.80945 9.94965 7.63 10.1953 7.49108C10.4711 7.33449 10.7668 7.21608 11.0744 7.13908V5.94727H12.1359Z" fill="#FBF79F"/>
</g>
<defs>
<clipPath id="clip0_765_378">
<rect width="21.9856" height="22" fill="white" transform="translate(0.375 0.9729)"/>
</clipPath>
</defs>
</svg>
