<svg width="147" height="60" viewBox="0 0 147 60" fill="none" xmlns="http://www.w3.org/2000/svg">
<path d="M39.8838 4.13255C43.2611 2.19011 47.5169 3.31263 49.4789 6.65089C51.3335 9.82322 50.3183 13.8057 47.8 15.6017C47.1851 14.4499 46.5896 13.3372 46.004 12.2147C45.5745 11.3947 45.1353 10.5846 44.7058 9.75489C44.5691 9.49134 44.4227 9.40349 44.1299 9.56943C43.4564 9.95011 42.7731 10.321 42.0703 10.6627C41.7384 10.8286 41.6994 10.9945 41.8653 11.3069C42.7926 13.0346 43.7101 14.772 44.6374 16.5095C44.7155 16.6657 44.7936 16.8219 44.8717 16.978C42.7536 17.7199 39.0541 16.7828 37.3069 13.6788C35.3742 10.2722 36.5846 6.02619 39.8838 4.13255Z" fill="#EE1E87"/>
<path d="M88.2833 45.5873C92.1593 45.5873 95.3015 42.4014 95.3015 38.4715C95.3015 34.5416 92.1593 31.3557 88.2833 31.3557C84.4073 31.3557 81.2651 34.5416 81.2651 38.4715C81.2651 42.4014 84.4073 45.5873 88.2833 45.5873Z" fill="#EE1E87"/>
<path d="M144.435 30.3606H129.374V48.887H144.435V30.3606Z" fill="#EE1E87"/>
<path d="M142.886 48.2427V48.8869H146.01L144.809 46.1636" fill="white"/>
<path d="M30.0289 12.6735C29.0821 10.3504 27.2763 9.06194 24.7579 8.99362C21.7028 8.91553 18.6378 8.97409 15.5826 8.96433C14.4308 8.96433 13.5328 8.47628 12.9569 7.4709C11.8344 5.49918 13.24 3.11749 15.5338 3.10773C19.7603 3.09797 23.9966 3.10773 28.2231 3.10773C28.4281 3.10773 28.6331 3.10773 28.8771 3.10773C28.8771 2.05354 28.8771 1.05792 28.8771 0.0622939C28.799 0.0427719 28.7502 0.0232505 28.7112 0.0232505C24.1918 0.0232505 19.6627 -0.0450771 15.1434 0.052533C11.7953 0.130621 9.22819 3.17606 9.52102 6.50456C9.79432 9.66713 12.3322 12.0195 15.5143 12.0293C18.4719 12.0391 21.4392 12.0293 24.3968 12.0293C25.7438 12.0293 26.7687 12.693 27.1982 13.8253C27.901 15.6799 26.5442 17.5735 24.5042 17.5735C16.6466 17.5735 8.78894 17.5735 0.931331 17.5735C0.72635 17.5735 0.521369 17.5735 0.277344 17.5735C0.277344 18.6375 0.277344 19.6234 0.277344 20.6873C0.501847 20.6873 0.697067 20.6873 0.882526 20.6873C4.02557 20.6873 7.15885 20.6873 10.3019 20.6873C15.1043 20.6873 19.897 20.7166 24.6994 20.6775C28.8088 20.6385 31.5809 16.4705 30.0289 12.6735Z" fill="white"/>
<path d="M104.268 20.6776C104.961 20.6776 105.664 20.5898 106.347 20.4433C111.54 19.3404 115.025 14.4794 114.449 9.17914C113.892 4.01557 109.451 0.0330813 104.219 0.0135593C99.4753 -0.00596275 94.7216 0.0135593 89.9778 0.0135593C89.8216 0.0135593 89.6654 0.0135593 89.4897 0.0135593C89.4897 6.92435 89.4897 13.7668 89.4897 20.6581C89.6752 20.6679 89.8021 20.6776 89.929 20.6776C94.7119 20.6874 99.4948 20.6971 104.268 20.6776ZM92.6328 3.17613C92.8183 3.16637 92.9744 3.14684 93.1306 3.14684C96.791 3.14684 100.451 3.14684 104.102 3.14684C107.596 3.1566 110.583 5.57733 111.237 8.92536C111.911 12.371 110.085 15.7776 106.816 17.0368C106.015 17.3491 105.117 17.5346 104.258 17.5443C100.5 17.5931 96.7519 17.5638 92.994 17.5638C92.8866 17.5638 92.7694 17.5443 92.6328 17.5346C92.6328 12.7419 92.6328 7.96878 92.6328 3.17613Z" fill="white"/>
<path d="M56.9872 10.8484C56.9872 11.2974 57.0263 11.7562 57.0849 12.2052C57.7486 17.564 63.0781 21.5074 68.3881 20.5704C73.3272 19.7017 76.7045 15.6899 76.7045 10.6727C76.7142 3.25437 76.7045 8.01028 76.7045 0.591914C76.7045 0.416216 76.7045 10.4423 76.7045 0.0648193C75.6503 0.0648193 74.6547 0.0648193 73.62 0.0648193C73.62 0.299083 73.62 0.494304 73.62 0.689524C73.62 7.94195 73.62 3.02986 73.62 10.2823C73.62 10.7899 73.62 11.2974 73.5419 11.7952C72.9953 15.3873 69.8718 17.8568 66.2212 17.5835C62.756 17.3297 60.0327 14.2941 60.0424 10.7313C60.0522 7.60778 60.0522 3.71555 60.0522 0.592027C60.0522 0.416329 60.0522 0.240632 60.0424 0.0649337C59.0078 0.0649337 57.9829 0.0649337 56.9677 0.0649337C56.958 0.250393 56.9677 0.406567 56.9677 0.562743C56.9775 3.73507 56.9775 7.6761 56.9872 10.8484Z" fill="white"/>
<path d="M84.4377 0.052002C83.3835 0.052002 82.3586 0.052002 81.324 0.052002C81.324 6.93351 81.324 13.7857 81.324 20.6575C82.3782 20.6575 83.4128 20.6575 84.4377 20.6575C84.4377 13.7662 84.4377 6.90423 84.4377 0.052002Z" fill="white"/>
<path d="M37.4295 18.4226C40.2016 20.4139 43.2568 20.8336 46.5267 19.9063C48.0104 22.698 49.4746 25.4506 50.9875 28.3008C50.8801 35.2018 50.7825 42.0443 50.6752 48.9356C51.8074 48.9356 52.8616 48.9356 53.9841 48.9356C54.0525 44.6602 54.1208 40.258 54.1794 36.0022L54.482 36.4805C56.483 40.2678 58.484 44.055 60.4752 47.8521L61.0609 48.9844H64.8579L65.7657 47.12C67.6398 43.4596 69.5237 39.7992 71.4075 36.1389C71.7004 35.5727 72.1103 34.7138 72.4032 34.1476V34.4697C72.4032 39.2819 72.4032 53.7795 72.4032 58.6112C73.5159 58.6112 74.5603 58.6112 75.6633 58.6112C75.6633 51.4759 75.6633 34.704 75.6633 27.5687C74.6287 27.5687 72.6374 27.5589 72.6374 27.5589L72.1201 27.5492C72.1201 27.5492 66.7027 38.0227 64.1356 43.0106C63.7452 43.7622 63.3547 44.5138 62.935 45.324C62.8276 45.1385 62.7593 45.0214 62.691 44.8945C61.2756 42.0248 59.87 39.155 58.4547 36.2853C57.0882 33.5132 54.111 27.5882 54.111 27.5882C54.1013 27.5687 54.0915 27.5492 54.0818 27.5199C53.0666 25.6653 52.5005 24.5623 51.5049 22.698C50.763 21.3119 50.0309 19.9161 49.2891 18.53C54.0622 15.0063 54.6577 8.97399 52.0612 4.82556C49.3965 0.569758 44.0962 -1.12866 39.4695 0.813783C34.9209 2.71718 32.3635 7.71482 33.5056 12.4879C34.0815 14.9477 35.3797 16.9585 37.4295 18.4226ZM39.8893 4.13253C43.2666 2.19009 47.5224 3.3126 49.4843 6.65087C51.3389 9.82319 50.3238 13.8057 47.8054 15.6017C47.1905 14.4499 46.5951 13.3372 46.0094 12.2146C45.5799 11.3947 45.1407 10.5846 44.7112 9.75487L44.4965 9.31562L41.617 10.8286L41.9293 11.3947C42.8371 13.0931 43.7449 14.8013 44.6429 16.4997C44.721 16.6559 44.799 16.8121 44.8771 16.9683C42.759 17.7101 39.0596 16.773 37.3123 13.669C35.3797 10.2722 36.59 6.02616 39.8893 4.13253Z" fill="white"/>
<path d="M88.4005 48.8678C94.0912 48.8678 98.6984 44.2509 98.6984 38.57C98.6984 32.8891 94.0814 28.2721 88.4005 28.2721C82.7099 28.2721 78.1027 32.8891 78.1027 38.57C78.1027 44.2509 82.7099 48.8678 88.4005 48.8678ZM88.2834 31.3663C92.1585 31.3663 95.3016 34.5484 95.3016 38.4821C95.3016 42.4158 92.1585 45.5979 88.2834 45.5979C84.4083 45.5979 81.2652 42.4158 81.2652 38.4821C81.2652 34.5484 84.3985 31.3663 88.2834 31.3663Z" fill="white"/>
<path d="M102.189 38.5694C102.189 44.26 106.806 48.8672 112.487 48.8672C118.177 48.8672 122.785 44.2503 122.785 38.5694C122.785 32.8885 118.168 28.2715 112.487 28.2715C106.806 28.2617 102.189 32.8787 102.189 38.5694ZM119.398 38.4718C119.398 42.3957 116.255 45.5875 112.379 45.5875C108.504 45.5875 105.361 42.4054 105.361 38.4718C105.361 34.5381 108.504 31.356 112.379 31.356C116.255 31.3657 119.398 34.5478 119.398 38.4718Z" fill="white"/>
<path d="M127.52 48.887H129.462V47.4814C129.462 41.9664 129.462 30.9267 129.462 30.9267L142.884 30.917C142.884 30.917 142.884 42.9816 142.884 48.1061C142.884 48.2818 142.864 48.4673 142.903 48.643C142.923 48.7406 143.05 48.8772 143.128 48.8772C144.084 48.8968 145.031 48.887 146.007 48.887C146.007 42.1909 146.007 34.4505 146.007 27.7935C139.438 27.7935 132.888 27.7935 126.329 27.7935C126.329 34.4505 126.329 42.1812 126.329 48.887C126.739 48.887 127.129 48.887 127.52 48.887Z" fill="white"/>
<path d="M137.789 38.6477H134.559V59.3801H137.789V38.6477Z" fill="white"/>
</svg>
