<svg width="22" height="21" viewBox="0 0 22 21" fill="none" xmlns="http://www.w3.org/2000/svg">
<path d="M11.3097 0.196938L14.4333 6.52889C14.4587 6.58031 14.4963 6.62476 14.5427 6.65838C14.5891 6.69201 14.6431 6.71379 14.6998 6.72184L21.6836 7.73729C21.7487 7.74677 21.8099 7.77428 21.8602 7.81672C21.9105 7.85916 21.9479 7.91483 21.9683 7.97744C21.9886 8.04005 21.991 8.10711 21.9753 8.17103C21.9595 8.23495 21.9262 8.29319 21.8791 8.33916L16.8251 13.2681C16.7841 13.308 16.7534 13.3572 16.7357 13.4116C16.718 13.4661 16.7138 13.524 16.7235 13.5803L17.9167 20.5412C17.9278 20.6061 17.9205 20.6728 17.8956 20.7338C17.8708 20.7948 17.8295 20.8476 17.7762 20.8863C17.723 20.925 17.66 20.9481 17.5943 20.9528C17.5287 20.9576 17.463 20.944 17.4047 20.9134L11.1575 17.6275C11.1068 17.6009 11.0505 17.587 10.9933 17.587C10.936 17.587 10.8797 17.6009 10.829 17.6275L4.5818 20.9134C4.5235 20.944 4.45783 20.9576 4.39218 20.9528C4.32654 20.9481 4.26354 20.925 4.2103 20.8863C4.15705 20.8476 4.11569 20.7948 4.09086 20.7338C4.06604 20.6728 4.05874 20.6061 4.0698 20.5412L5.26369 13.5803C5.27337 13.524 5.26919 13.4661 5.25148 13.4116C5.23378 13.3572 5.2031 13.308 5.16209 13.2681L0.107407 8.33916C0.0603027 8.29319 0.0269904 8.23495 0.0112356 8.17103C-0.00451912 8.10711 -0.0020882 8.04005 0.0182531 7.97744C0.0385944 7.91483 0.0760354 7.85916 0.126345 7.81672C0.176654 7.77428 0.237825 7.74677 0.302945 7.73729L7.28769 6.72184C7.34445 6.71379 7.39838 6.69201 7.44482 6.65838C7.49126 6.62476 7.5288 6.58031 7.55418 6.52889L10.6778 0.196938C10.707 0.138087 10.7521 0.0885628 10.8079 0.0539415C10.8637 0.0193201 10.9281 0.000976562 10.9938 0.000976562C11.0594 0.000976563 11.1238 0.0193201 11.1796 0.0539415C11.2355 0.0885628 11.2805 0.138087 11.3097 0.196938Z" fill="#F3BA30"/>
</svg>
