<svg width="16" height="16" viewBox="0 0 16 16" fill="none" xmlns="http://www.w3.org/2000/svg">
<g clip-path="url(#clip0_803_4258)">
<path d="M7.95614 0.726203L10.1535 5.18751C10.1714 5.22374 10.1978 5.25505 10.2304 5.27875C10.2631 5.30244 10.3011 5.31778 10.341 5.32346L15.2538 6.03891C15.2996 6.04559 15.3427 6.06498 15.3781 6.09488C15.4135 6.12478 15.4398 6.164 15.4541 6.20812C15.4684 6.25223 15.4701 6.29948 15.459 6.34451C15.448 6.38955 15.4245 6.43058 15.3914 6.46297L11.836 9.93574C11.8072 9.96384 11.7856 9.99856 11.7732 10.0369C11.7607 10.0752 11.7578 10.116 11.7646 10.1558L12.604 15.0601C12.6117 15.1059 12.6066 15.1529 12.5891 15.1958C12.5717 15.2388 12.5426 15.276 12.5051 15.3033C12.4677 15.3306 12.4234 15.3468 12.3772 15.3502C12.331 15.3536 12.2848 15.344 12.2438 15.3224L7.84905 13.0072C7.81341 12.9885 7.77377 12.9787 7.73352 12.9787C7.69328 12.9787 7.65363 12.9885 7.618 13.0072L3.22326 15.3224C3.18225 15.344 3.13605 15.3536 3.08987 15.3502C3.04369 15.3468 2.99938 15.3306 2.96192 15.3033C2.92447 15.276 2.89537 15.2388 2.8779 15.1958C2.86044 15.1529 2.85531 15.1059 2.86309 15.0601L3.70295 10.1558C3.70976 10.116 3.70682 10.0752 3.69436 10.0369C3.68191 9.99856 3.66033 9.96384 3.63148 9.93574L0.0756641 6.46297C0.0425276 6.43058 0.0190934 6.38955 0.00801039 6.34451C-0.00307259 6.29948 -0.00136251 6.25223 0.012947 6.20812C0.0272565 6.164 0.0535951 6.12478 0.088986 6.09488C0.124377 6.06498 0.167409 6.04559 0.213219 6.03891L5.12677 5.32346C5.1667 5.31778 5.20464 5.30244 5.23731 5.27875C5.26998 5.25505 5.29638 5.22374 5.31424 5.18751L7.51161 0.726203C7.53216 0.684739 7.56385 0.649845 7.60312 0.625452C7.64239 0.601059 7.68767 0.588135 7.73388 0.588135C7.78008 0.588135 7.82536 0.601059 7.86463 0.625452C7.9039 0.649845 7.9356 0.684739 7.95614 0.726203Z" fill="black"/>
</g>
<defs>
<clipPath id="clip0_803_4258">
<rect width="15.4662" height="14.7632" fill="white" transform="translate(0 0.586914)"/>
</clipPath>
</defs>
</svg>
