<svg width="16" height="16" viewBox="0 0 16 16" fill="none" xmlns="http://www.w3.org/2000/svg">
<g clip-path="url(#clip0_803_4319)">
<path d="M7.9562 0.726203L10.1536 5.18751C10.1714 5.22374 10.1978 5.25505 10.2305 5.27875C10.2632 5.30244 10.3011 5.31778 10.341 5.32346L15.2539 6.03891C15.2997 6.04559 15.3427 6.06498 15.3781 6.09488C15.4135 6.12478 15.4399 6.164 15.4542 6.20812C15.4685 6.25223 15.4702 6.29948 15.4591 6.34451C15.448 6.38955 15.4246 6.43058 15.3914 6.46297L11.8361 9.93574C11.8073 9.96384 11.7857 9.99856 11.7732 10.0369C11.7608 10.0752 11.7578 10.116 11.7646 10.1558L12.604 15.0601C12.6118 15.1059 12.6067 15.1529 12.5892 15.1958C12.5717 15.2388 12.5426 15.276 12.5052 15.3033C12.4677 15.3306 12.4234 15.3468 12.3772 15.3502C12.3311 15.3536 12.2849 15.344 12.2438 15.3224L7.84911 13.0072C7.81348 12.9885 7.77383 12.9787 7.73359 12.9787C7.69334 12.9787 7.6537 12.9885 7.61806 13.0072L3.22332 15.3224C3.18231 15.344 3.13611 15.3536 3.08993 15.3502C3.04376 15.3468 2.99944 15.3306 2.96198 15.3033C2.92453 15.276 2.89543 15.2388 2.87796 15.1958C2.8605 15.1529 2.85537 15.1059 2.86315 15.0601L3.70301 10.1558C3.70982 10.116 3.70688 10.0752 3.69443 10.0369C3.68197 9.99856 3.66039 9.96384 3.63154 9.93574L0.0757251 6.46297C0.0425886 6.43058 0.0191544 6.38955 0.00807143 6.34451C-0.00301155 6.29948 -0.00130147 6.25223 0.013008 6.20812C0.0273175 6.164 0.0536561 6.12478 0.089047 6.09488C0.124438 6.06498 0.16747 6.04559 0.21328 6.03891L5.12683 5.32346C5.16676 5.31778 5.2047 5.30244 5.23737 5.27875C5.27004 5.25505 5.29644 5.22374 5.3143 5.18751L7.51167 0.726203C7.53222 0.684739 7.56391 0.649845 7.60318 0.625452C7.64245 0.601059 7.68773 0.588135 7.73394 0.588135C7.78014 0.588135 7.82543 0.601059 7.86469 0.625452C7.90396 0.649845 7.93566 0.684739 7.9562 0.726203Z" fill="#67B14D"/>
</g>
<defs>
<clipPath id="clip0_803_4319">
<rect width="15.4662" height="14.7632" fill="white" transform="translate(0 0.586914)"/>
</clipPath>
</defs>
</svg>
