<svg width="23" height="24" viewBox="0 0 23 24" fill="none" xmlns="http://www.w3.org/2000/svg">
<path d="M12.2357 3.20003V10.5335H19.1502L10.5071 20.8003V13.4668H3.59268L12.2357 3.20003ZM12.2357 1C11.8233 1.00003 11.4168 1.08355 11.05 1.24362C10.6832 1.40368 10.3667 1.63568 10.1268 1.92035L1.48377 12.1871C1.2066 12.516 1.0416 12.9033 1.00689 13.3066C0.972179 13.7098 1.0691 14.1134 1.28701 14.4729C1.50492 14.8325 1.83539 15.1341 2.24214 15.3447C2.64888 15.5554 3.11616 15.6668 3.59268 15.6669H7.91421V20.8003C7.91428 21.2662 8.08871 21.7201 8.41237 22.0966C8.73604 22.473 9.1922 22.7525 9.71513 22.8949C10.2381 23.0372 10.8008 23.035 11.3221 22.8885C11.8434 22.742 12.2965 22.4589 12.616 22.0799L21.2591 11.8131C21.5363 11.4843 21.7013 11.0969 21.736 10.6937C21.7707 10.2905 21.6738 9.88693 21.4558 9.52737C21.2379 9.16782 20.9075 8.86617 20.5007 8.65554C20.094 8.44492 19.6267 8.33347 19.1502 8.33343H14.8287V3.20003C14.8287 2.61654 14.5555 2.05696 14.0692 1.64437C13.5829 1.23179 12.9234 1 12.2357 1Z" fill="white" stroke="#25272C"/>
</svg>
