<svg width="20" height="20" viewBox="0 0 20 20" fill="none" xmlns="http://www.w3.org/2000/svg">
<path d="M10 20C15.5228 20 20 15.5228 20 10C20 4.47715 15.5228 0 10 0C4.47715 0 0 4.47715 0 10C0 15.5228 4.47715 20 10 20Z" fill="#F0F0F0"/>
<path d="M13.4785 9.99997C13.4785 10.8695 11.9212 13.0434 10.0002 13.0434C8.07924 13.0434 6.52197 10.8695 6.52197 9.99997C6.52197 8.07895 8.07924 6.52173 10.0002 6.52173C11.9212 6.52173 13.4785 8.07895 13.4785 9.99997Z" fill="#D80027"/>
<path d="M13.4785 10C13.4785 11.921 11.9212 13.4782 10.0002 13.4782C8.07924 13.4782 6.52197 11.921 6.52197 10" fill="#0052B4"/>
<path d="M13.6865 13.0745L14.6087 12.1524L15.2235 12.7671L14.3013 13.6893L13.6865 13.0745Z" fill="black"/>
<path d="M12.1489 14.6115L13.0711 13.6893L13.6859 14.3041L12.7637 15.2263L12.1489 14.6115Z" fill="black"/>
<path d="M15.5308 14.9188L16.4529 13.9966L17.0677 14.6114L16.1455 15.5335L15.5308 14.9188Z" fill="black"/>
<path d="M13.9937 16.456L14.9158 15.5338L15.5306 16.1486L14.6084 17.0708L13.9937 16.456Z" fill="black"/>
<path d="M14.6089 13.9967L15.5311 13.0745L16.1458 13.6893L15.2237 14.6115L14.6089 13.9967Z" fill="black"/>
<path d="M13.0718 15.5337L13.9939 14.6115L14.6087 15.2263L13.6866 16.1485L13.0718 15.5337Z" fill="black"/>
<path d="M15.5352 6.92719L13.076 4.46807L13.6908 3.85328L16.1499 6.3124L15.5352 6.92719Z" fill="black"/>
<path d="M13.0757 6.31262L12.1535 5.39046L12.7683 4.7757L13.6904 5.69786L13.0757 6.31262Z" fill="black"/>
<path d="M14.6123 7.84998L13.6901 6.92781L14.3049 6.31305L15.2271 7.23522L14.6123 7.84998Z" fill="black"/>
<path d="M14.9194 4.46796L13.9973 3.54579L14.6121 2.931L15.5342 3.85317L14.9194 4.46796Z" fill="black"/>
<path d="M16.4575 6.00549L15.5353 5.08333L16.1501 4.46854L17.0723 5.39071L16.4575 6.00549Z" fill="black"/>
<path d="M3.54492 13.995L6.00403 16.4541L5.38925 17.0689L2.93014 14.6098L3.54492 13.995Z" fill="black"/>
<path d="M6.00391 14.6093L6.92607 15.5315L6.31131 16.1462L5.38915 15.2241L6.00391 14.6093Z" fill="black"/>
<path d="M4.4668 13.0726L5.38896 13.9948L4.77418 14.6096L3.85201 13.6874L4.4668 13.0726Z" fill="black"/>
<path d="M5.38916 12.1502L7.84828 14.6093L7.2335 15.2241L4.77437 12.765L5.38916 12.1502Z" fill="black"/>
<path d="M6.00391 3.54388L3.54479 6.003L2.93001 5.38821L5.38912 2.9291L6.00391 3.54388Z" fill="black"/>
<path d="M6.92627 4.46594L4.46715 6.92506L3.85237 6.31028L6.31148 3.85115L6.92627 4.46594Z" fill="black"/>
<path d="M7.84912 5.38867L5.39 7.84779L4.77524 7.23303L7.23436 4.77391L7.84912 5.38867Z" fill="black"/>
</svg>
