<svg width="20" height="20" viewBox="0 0 20 20" fill="none" xmlns="http://www.w3.org/2000/svg">
<path d="M10 20C15.5228 20 20 15.5228 20 10C20 4.47715 15.5228 0 10 0C4.47715 0 0 4.47715 0 10C0 15.5228 4.47715 20 10 20Z" fill="#F0F0F0"/>
<path d="M10.0002 14.3478C12.4014 14.3478 14.348 12.4012 14.348 10C14.348 7.59878 12.4014 5.65219 10.0002 5.65219C7.59893 5.65219 5.65234 7.59878 5.65234 10C5.65234 12.4012 7.59893 14.3478 10.0002 14.3478Z" fill="#D80027"/>
<path d="M10 20C15.5228 20 20 15.5228 20 10C20 4.47715 15.5228 0 10 0C4.47715 0 0 4.47715 0 10C0 15.5228 4.47715 20 10 20Z" fill="#F0F0F0"/>
<path d="M19.378 13.4782C19.78 12.3949 20 11.2232 20 9.99997C20 8.77677 19.78 7.60505 19.378 6.52173H0.621992C0.220039 7.60505 0 8.77677 0 9.99997C0 11.2232 0.220039 12.3949 0.621992 13.4782L10 14.3478L19.378 13.4782Z" fill="#0052B4"/>
<path d="M10.0001 20C14.2997 20 17.9652 17.2862 19.3781 13.4782H0.62207C2.035 17.2862 5.70043 20 10.0001 20Z" fill="#D80027"/>
</svg>
